:SAMPLES-PER-SECOND 30
:FULLY-SPECIFIED
:DEGREES
495
root  -40.8284 39.6618 -11.9538 -4.18958 0.535522 -7.04123
RightUpLeg  -9.97209 -18.2756 -1.97251
RightLeg  21.0275 -0.254925 1.77356
RightFoot  -3.29176 -0.365871 4.88901
RightToes  -5.8209e-011 0 -3.6325e-017
Spine  6.92804 -1.59316 13.58
Spine1  10.6586 0.121691 -1.08547
HEad  -4.26757 -12.6377 -62.1565
LeftShoulder1  9.14965 -12.9668 -48.4954
LeftArm  -0.224882 -0.958777 -32.3708
LeftForeArm  26.3487 -18.0549 -4.6858
LeftHand  -0.244104 0.0205437 5.32207
RightShoulder  6.20002 10.0967 39.4768
RightArm  -0.940254 -6.05937 28.0078
RightForeArm  8.54066 11.8587 7.28911
RightHand  -0.57279 -0.2045 -12.847
LeftUpLeg  -8.52767 -0.00115789 6.9704
LeftLeg  61.8764 3.67051 7.97454
LeftFoot  6.28864 -0.221814 1.18239
LeftToes  1.76439e-010 -1.07097e-011 2.32476e-011
496
root  -41.2866 39.9986 -10.8019 -4.09033 1.5641 -5.63281
RightUpLeg  -6.78315 -17.2137 -3.80931
RightLeg  19.2578 -2.2248 2.09052
RightFoot  -4.75256 -0.343345 5.40051
RightToes  -5.8209e-011 0 -3.6325e-017
Spine  7.20457 -1.01222 12.978
Spine1  10.2974 0.958192 -2.38264
HEad  -4.04235 -9.01896 -54.4173
LeftShoulder1  9.01956 -12.822 -48.2265
LeftArm  -3.18819 2.92592 -29.5559
LeftForeArm  26.6958 -15.6899 -5.32474
LeftHand  -0.244104 0.0205437 5.32207
RightShoulder  6.11486 10.0908 38.8974
RightArm  0.341004 -5.11962 28.4716
RightForeArm  8.06994 13.1519 7.04403
RightHand  -0.537246 -0.213645 -12.0707
LeftUpLeg  -12.5868 2.82823 5.05866
LeftLeg  61.3806 3.47847 7.49996
LeftFoot  2.5264 -0.177037 1.30736
LeftToes  1.76439e-010 -1.07097e-011 2.32476e-011
497
root  -41.6856 40.252 -9.66095 -3.61377 2.86159 -4.62648
RightUpLeg  -4.08825 -14.9117 -5.05436
RightLeg  17.3728 -5.54722 2.44842
RightFoot  -5.73983 -0.3232 5.79156
RightToes  -5.8209e-011 0 -3.6325e-017
Spine  7.15376 -0.526051 12.6343
Spine1  9.71167 1.56294 -3.26723
HEad  -3.28793 -10.3677 -54.6712
LeftShoulder1  8.82253 -12.6052 -47.8023
LeftArm  -5.26857 6.82738 -26.8268
LeftForeArm  26.4103 -13.2458 -5.8693
LeftHand  -0.244104 0.0205437 5.32207
RightShoulder  5.99126 9.99004 38.3423
RightArm  2.75064 -4.72705 28.7844
RightForeArm  5.57593 15.5078 6.51143
RightHand  -0.500218 -0.431713 -11.7224
LeftUpLeg  -16.4098 5.55016 3.05659
LeftLeg  58.0258 2.60137 5.04785
LeftFoot  0.493408 -0.0713935 0.664315
LeftToes  1.76439e-010 -1.07097e-011 2.32476e-011
498
root  -42.0211 40.4654 -8.51699 -3.23462 4.15134 -4.08269
RightUpLeg  -1.22988 -12.3978 -5.60401
RightLeg  15.0545 -8.99493 2.88012
RightFoot  -6.40226 -0.290474 5.71671
RightToes  -5.8209e-011 0 -3.6325e-017
Spine  7.0104 -0.000714921 12.7342
Spine1  9.35662 2.18262 -4.12073
HEad  -2.68204 -13.3039 -57.3147
LeftShoulder1  8.65025 -12.4211 -47.4038
LeftArm  -6.74076 10.2585 -24.2513
LeftForeArm  26.0033 -10.7844 -6.18231
LeftHand  -0.244104 0.0205437 5.32207
RightShoulder  5.91072 9.908 38.0265
RightArm  5.60674 -4.85711 28.6086
RightForeArm  1.34732 18.8775 5.63177
RightHand  -0.477433 -0.798214 -12.0409
LeftUpLeg  -19.3023 8.49278 1.03808
LeftLeg  52.322 2.18515 3.47836
LeftFoot  -1.12771 -0.0419713 0.5581
LeftToes  1.76439e-010 -1.07097e-011 2.32476e-011
499
root  -42.2991 40.6027 -7.38422 -3.05884 5.37939 -3.72017
RightUpLeg  1.98626 -10.979 -5.81539
RightLeg  12.4156 -11.3309 3.35024
RightFoot  -7.2621 -0.265087 6.07311
RightToes  -5.8209e-011 0 -3.6325e-017
Spine  6.96957 0.479995 12.5514
Spine1  9.23961 2.64071 -4.62137
HEad  -1.24284 -1.57492 -33.0057
LeftShoulder1  8.47397 -12.2368 -46.9718
LeftArm  -7.33866 13.5913 -22.0421
LeftForeArm  25.2061 -9.00265 -6.17507
LeftHand  -0.244104 0.0205437 5.32207
RightShoulder  5.90559 9.92675 37.9302
RightArm  7.15062 -4.84066 27.9567
RightForeArm  -0.969615 21.9457 5.04628
RightHand  -0.447292 -1.09789 -12.0297
LeftUpLeg  -21.0804 12.07 -1.20505
LeftLeg  44.4995 2.61708 3.13197
LeftFoot  -3.16808 -0.0478378 0.935934
LeftToes  1.76439e-010 -1.07097e-011 2.32476e-011
500
root  -42.5228 40.616 -6.26299 -2.81433 6.91081 -3.63414
RightUpLeg  4.93215 -10.4448 -5.57407
RightLeg  10.1647 -13.1008 3.62967
RightFoot  -8.28697 -0.241921 6.94038
RightToes  -5.8209e-011 0 -3.6325e-017
Spine  6.81089 0.738153 11.9685
Spine1  9.10861 2.65363 -4.38458
HEad  2.92339 47.7965 60.1712
LeftShoulder1  8.27074 -12.0598 -46.3506
LeftArm  -7.25762 17.2119 -20.4375
LeftForeArm  24.1345 -8.06974 -6.04281
LeftHand  -0.244104 0.0205437 5.32207
RightShoulder  5.91366 9.96166 37.8781
RightArm  7.23662 -4.38784 27.2407
RightForeArm  -0.56557 23.8797 5.1057
RightHand  -0.420098 -1.19366 -11.5467
LeftUpLeg  -22.1235 16.5298 -3.76654
LeftLeg  34.7208 2.82087 2.5179
LeftFoot  -4.36845 -0.0362361 1.02247
LeftToes  1.76439e-010 -1.07097e-011 2.32476e-011
501
root  -42.6807 40.5607 -5.13202 -2.51501 8.56157 -3.90636
RightUpLeg  7.42462 -9.88892 -4.73474
RightLeg  8.41767 -15.1081 3.66656
RightFoot  -9.04165 -0.207935 7.25008
RightToes  -5.8209e-011 0 -3.6325e-017
Spine  6.41786 0.859335 11.52
Spine1  9.03437 2.50714 -4.01334
HEad  2.43685 45.3764 54.6333
LeftShoulder1  8.08671 -11.9766 -45.5381
LeftArm  -7.01803 21.0296 -19.4148
LeftForeArm  23.0091 -7.64474 -5.86173
LeftHand  -0.244104 0.0205437 5.32207
RightShoulder  5.89495 9.94008 37.812
RightArm  6.89893 -3.83334 26.8719
RightForeArm  0.0779256 24.7248 5.28896
RightHand  -0.420108 -1.13397 -11.3885
LeftUpLeg  -22.4787 22.7715 -6.95019
LeftLeg  23.2508 1.08195 1.1145
LeftFoot  -4.13595 -0.0130017 0.611469
LeftToes  1.76439e-010 -1.07097e-011 2.32476e-011
